<?xml version="1.0" standalone="no"?>
<!DOCTYPE svg PUBLIC "-//W3C//DTD SVG 20010904//EN"
 "http://www.w3.org/TR/2001/REC-SVG-20010904/DTD/svg10.dtd">
<svg version="1.0" xmlns="http://www.w3.org/2000/svg"
 width="260.000000pt" height="260.000000pt" viewBox="0 0 260.000000 260.000000"
 preserveAspectRatio="xMidYMid meet">
<metadata>
Created by potrace 1.13, written by Peter Selinger 2001-2015
</metadata>
<g transform="translate(0.000000,260.000000) scale(0.100000,-0.100000)"
fill="#000000" stroke="none">
<path d="M1074 2156 c-310 -81 -551 -323 -630 -634 -34 -134 -34 -310 0 -445
88 -347 392 -615 741 -654 91 -10 274 1 350 21 127 35 272 117 378 215 101 94
206 268 243 406 20 76 31 259 21 350 -39 349 -307 653 -654 741 -133 34 -318
33 -449 0z m484 -451 c3 -108 -3 -115 -93 -115 -34 0 -66 -5 -73 -12 -7 -7
-12 -39 -12 -75 l0 -63 80 0 c94 0 100 -6 100 -102 0 -109 1 -108 -96 -108
l-84 0 -2 -217 -3 -218 -105 0 -105 0 -3 217 -2 217 -73 3 -72 3 0 100 0 100
73 3 72 3 0 83 c0 92 11 135 47 184 52 70 114 92 248 89 l100 -2 3 -90z"/>
</g>
</svg>
