<?xml version="1.0" standalone="no"?>
<!DOCTYPE svg PUBLIC "-//W3C//DTD SVG 20010904//EN"
 "http://www.w3.org/TR/2001/REC-SVG-20010904/DTD/svg10.dtd">
<svg version="1.0" xmlns="http://www.w3.org/2000/svg"
 width="260.000000pt" height="260.000000pt" viewBox="0 0 260.000000 260.000000"
 preserveAspectRatio="xMidYMid meet">
<metadata>
Created by potrace 1.13, written by Peter Selinger 2001-2015
</metadata>
<g transform="translate(0.000000,260.000000) scale(0.100000,-0.100000)"
fill="#000000" stroke="none">
<path d="M1131 2170 c-175 -37 -333 -122 -456 -245 -104 -104 -171 -214 -221
-365 -27 -80 -28 -95 -28 -260 0 -165 1 -180 28 -260 97 -292 294 -489 586
-586 80 -27 95 -28 260 -28 165 0 180 1 260 28 151 50 261 117 365 221 104
104 171 214 221 365 27 80 28 95 28 260 0 165 -1 180 -28 260 -97 293 -296
491 -586 585 -74 24 -104 28 -235 31 -82 2 -170 -1 -194 -6z m100 -522 c30
-14 65 -34 79 -46 l25 -21 -47 -47 -46 -47 -54 23 c-164 73 -329 -22 -345
-200 -21 -227 285 -351 417 -168 52 72 46 78 -75 78 l-105 0 0 65 0 65 185 0
185 0 0 -57 c-1 -297 -284 -466 -557 -333 -72 36 -130 97 -170 179 -24 49 -27
68 -28 156 0 88 3 107 27 157 47 100 137 180 241 214 66 22 202 13 268 -18z
m561 -240 l3 -53 53 -3 52 -3 0 -49 0 -49 -52 -3 -53 -3 -3 -52 -3 -53 -49 0
-49 0 -3 53 -3 52 -52 3 -53 3 0 49 0 49 53 3 52 3 3 53 3 52 49 0 49 0 3 -52z"/>
</g>
</svg>
