<?xml version="1.0" standalone="no"?>
<!DOCTYPE svg PUBLIC "-//W3C//DTD SVG 20010904//EN"
 "http://www.w3.org/TR/2001/REC-SVG-20010904/DTD/svg10.dtd">
<svg version="1.0" xmlns="http://www.w3.org/2000/svg"
 width="260.000000pt" height="260.000000pt" viewBox="0 0 260.000000 260.000000"
 preserveAspectRatio="xMidYMid meet">
<metadata>
Created by potrace 1.13, written by Peter Selinger 2001-2015
</metadata>
<g transform="translate(0.000000,260.000000) scale(0.100000,-0.100000)"
fill="#000000" stroke="none">
<path d="M1157 2180 c-415 -70 -723 -415 -744 -835 -10 -196 39 -372 149 -536
l59 -89 674 0 674 0 39 53 c57 76 89 135 122 224 39 107 51 182 51 313 0 297
-143 563 -391 729 -184 123 -422 176 -633 141z m435 -430 c58 -21 123 -81 154
-140 17 -32 19 -61 19 -310 0 -265 -1 -277 -22 -316 -28 -53 -74 -99 -127
-127 -39 -21 -51 -22 -316 -22 -309 0 -306 -1 -388 78 -74 72 -82 109 -82 386
0 283 6 308 85 387 78 78 98 82 382 83 219 1 247 -1 295 -19z"/>
<path d="M1045 1665 c-50 -18 -100 -71 -114 -122 -6 -21 -11 -131 -11 -251 0
-227 5 -259 53 -311 50 -54 83 -61 322 -61 121 0 236 5 255 10 45 12 107 75
120 121 6 18 10 132 10 252 0 232 -5 264 -53 316 -50 54 -83 61 -322 60 -164
0 -230 -4 -260 -14z m372 -149 c36 -19 86 -72 109 -116 12 -23 18 -57 18 -100
0 -73 -17 -115 -68 -168 -50 -54 -101 -76 -176 -76 -78 0 -129 23 -182 82 -47
52 -61 98 -56 182 4 80 35 135 104 183 65 46 178 52 251 13z"/>
<path d="M1233 1429 c-30 -15 -48 -33 -62 -63 -27 -54 -26 -81 2 -136 68 -132
261 -91 274 59 6 63 -20 109 -77 139 -55 27 -83 28 -137 1z"/>
</g>
</svg>
