<?xml version="1.0" standalone="no"?>
<!DOCTYPE svg PUBLIC "-//W3C//DTD SVG 20010904//EN"
 "http://www.w3.org/TR/2001/REC-SVG-20010904/DTD/svg10.dtd">
<svg version="1.0" xmlns="http://www.w3.org/2000/svg"
 width="260.000000pt" height="260.000000pt" viewBox="0 0 260.000000 260.000000"
 preserveAspectRatio="xMidYMid meet">
<metadata>
Created by potrace 1.13, written by Peter Selinger 2001-2015
</metadata>
<g transform="translate(0.000000,260.000000) scale(0.100000,-0.100000)"
fill="#000000" stroke="none">
<path d="M1157 2180 c-353 -64 -625 -312 -719 -655 -29 -108 -31 -326 -4 -429
58 -217 188 -407 361 -526 73 -50 204 -108 296 -130 103 -24 285 -27 388 -5
345 72 614 342 687 688 22 105 19 277 -6 383 -22 94 -79 225 -130 299 -118
171 -302 299 -515 357 -80 22 -281 32 -358 18z m147 -590 c64 0 70 -14 76
-157 4 -111 7 -128 22 -131 22 -4 67 58 128 176 l45 87 100 3 c55 2 110 0 123
-3 43 -11 28 -53 -63 -181 -46 -65 -85 -125 -85 -133 0 -8 35 -50 78 -95 43
-45 84 -96 92 -115 13 -32 12 -35 -9 -52 -19 -15 -40 -19 -111 -19 -49 0 -101
5 -117 11 -15 5 -55 37 -89 70 -34 32 -69 59 -76 59 -25 0 -38 -23 -38 -65 0
-70 -13 -78 -116 -73 -72 4 -99 10 -143 32 -114 59 -216 185 -325 403 -31 62
-56 119 -56 127 0 25 34 36 107 36 104 0 110 -3 148 -85 40 -85 119 -195 139
-195 19 0 26 32 26 125 0 83 -15 125 -46 125 -17 0 -19 26 -1 37 18 11 97 22
131 17 16 -2 43 -4 60 -4z"/>
</g>
</svg>
