<?xml version="1.0" standalone="no"?>
<!DOCTYPE svg PUBLIC "-//W3C//DTD SVG 20010904//EN"
 "http://www.w3.org/TR/2001/REC-SVG-20010904/DTD/svg10.dtd">
<svg version="1.0" xmlns="http://www.w3.org/2000/svg"
 width="260.000000pt" height="260.000000pt" viewBox="0 0 260.000000 260.000000"
 preserveAspectRatio="xMidYMid meet">
<metadata>
Created by potrace 1.13, written by Peter Selinger 2001-2015
</metadata>
<g transform="translate(0.000000,260.000000) scale(0.100000,-0.100000)"
fill="#000000" stroke="none">
<path d="M1157 2180 c-559 -94 -889 -675 -685 -1203 57 -150 188 -314 323
-407 73 -50 204 -108 296 -130 101 -24 290 -27 389 -6 342 73 615 347 686 690
22 102 19 278 -6 382 -52 219 -183 408 -370 533 -184 123 -422 176 -633 141z
m508 -549 c50 -22 101 -79 115 -128 7 -24 10 -105 8 -219 l-3 -181 -30 -48
c-20 -32 -45 -56 -74 -72 -44 -23 -48 -23 -381 -23 -333 0 -337 0 -381 23 -24
13 -57 43 -74 66 l-30 43 -3 196 -3 197 28 55 c23 44 38 59 82 82 l53 28 327
0 c294 0 330 -2 366 -19z"/>
<path d="M1166 1443 c-10 -10 -7 -271 3 -278 11 -6 281 125 281 137 0 11 -276
148 -284 141z"/>
</g>
</svg>
