<svg xmlns="http://www.w3.org/2000/svg" xmlns:xlink="http://www.w3.org/1999/xlink" version="1.1" style="enable-background:new -110 389.5 374.2 62.4;" xml:space="preserve" width="374" height="62" id="svgcontent"><rect id="backgroundrect" width="100%" height="100%" x="0" y="0" fill="none" stroke="none" class=""></rect>
<style type="text/css">
	.st0{fill:#FFFFFF;}
	.st1{fill:#C13332;}
	.st2{fill:#415695;}
	.st3{fill:#4674B0;}
	.st4{fill:#5CA3D9;}
	.st5{fill:url(#SVGID_1_);}
	.st6{fill:#B54A3C;}
</style>
	<g class="currentLayer" style="pointer-events:all"><title>Layer 1</title>
		<g id="svg_1" class="selected">
			<g id="svg_2">
				<rect x="0" y="0" class="st0" width="62.400001525878906" height="62.400001525878906" id="svg_3"></rect>
				<g id="svg_4">
					<circle class="st1" cx="343.1000061035156" cy="31.20001220703125" r="21.299999237060547" id="svg_5"></circle>
					<circle class="st1" cx="343.1000061035156" cy="31.20001220703125" r="19.100000381469727" id="svg_6"></circle>
					<g id="svg_7">
						<path class="st0" d="M349.9,22.899999999999977 h-13.7 c-2.7,0 -4.9,2.2 -4.9,4.9 v6.8 c0,2.7 2.2,4.9 4.9,4.9 h13.7 c2.7,0 4.9,-2.2 4.9,-4.9 v-6.8 C354.8,25.100000000000023 352.6,22.899999999999977 349.9,22.899999999999977 zM346.6,31.5 l-6.4,3.1 c-0.2,0.1 -0.4,0 -0.4,-0.2 v-6.4 c0,-0.2 0.2,-0.30000000000000004 0.4,-0.2 l6.4,3.2 C346.8,31.100000000000023 346.8,31.399999999999977 346.6,31.5 z" id="svg_8"></path>
					</g>
				</g>
			</g>
			<g id="svg_9">
				<rect x="0" y="0" class="st0" width="62.400001525878906" height="62.400001525878906" id="svg_10"></rect>
				<g id="svg_11">
					<circle class="st2" cx="31.199996948242188" cy="31.20001220703125" r="19.100000381469727" id="svg_12"></circle>
					<g id="svg_13">
						<path class="st0" d="M36.8,19.30000000000001 h-3.1 c-3.5,0 -5.8,2.3 -5.8,5.9 v2.7 h-3.1 c-0.30000000000000004,0 -0.5,0.2 -0.5,0.5 v3.9 c0,0.30000000000000004 0.2,0.5 0.5,0.5 h3.1 v10 c0,0.30000000000000004 0.2,0.5 0.5,0.5 h4.1 c0.30000000000000004,0 0.5,-0.2 0.5,-0.5 v-10 h3.7 c0.30000000000000004,0 0.5,-0.2 0.5,-0.5 v-3.9 c0,-0.1 -0.1,-0.30000000000000004 -0.1,-0.30000000000000004 c-0.1,-0.1 -0.2,-0.1 -0.30000000000000004,-0.1 H33 v-2.3 c0,-1.1 0.30000000000000004,-1.7000000000000002 1.7000000000000002,-1.7000000000000002 h2.1 c0.30000000000000004,0 0.5,-0.2 0.5,-0.5 v-3.7 C37.3,19.5 37.099999999999994,19.30000000000001 36.8,19.30000000000001 z" id="svg_14"></path>
					</g>
					<path class="st2" d="M31.200000000000003,9.899999999999977 c-11.7,0 -21.3,9.5 -21.3,21.3 s9.5,21.3 21.3,21.3 s21.3,-9.5 21.3,-21.3 C52.5,19.399999999999977 42.900000000000006,9.899999999999977 31.200000000000003,9.899999999999977 zM31.200000000000003,50.30000000000001 c-10.6,0 -19.2,-8.6 -19.2,-19.1 s8.6,-19.2 19.2,-19.2 s19.1,8.6 19.1,19.1 S41.7,50.30000000000001 31.200000000000003,50.30000000000001 z" id="svg_15"></path>
				</g>
			</g>
			<g id="svg_16">
				<rect x="0" y="0" class="st0" width="62.400001525878906" height="62.400001525878906" id="svg_17"></rect>
				<g id="svg_18">
					<circle class="st0" cx="280.6000061035156" cy="31.20001220703125" r="19.5" id="svg_19"></circle>
					<path class="st3" d="M299.5,21.399999999999977 c-2,-3.9 -5.2,-7.1 -9.1,-9.1 c-2.9,-1.5 -6.3,-2.4 -9.8,-2.4 s-6.9,0.9 -9.8,2.4 c-3.9,2 -7.1,5.2 -9.1,9.1 c-1.5,2.9 -2.4,6.3 -2.4,9.8 s0.9,6.9 2.4,9.8 c2,3.9 5.2,7.1 9.1,9.1 c2.9,1.5 6.3,2.4 9.8,2.4 s6.9,-0.9 9.8,-2.4 c3.9,-2 7.1,-5.2 9.1,-9.1 c1.5,-2.9 2.4,-6.3 2.4,-9.8 S301,24.30000000000001 299.5,21.399999999999977 z" id="svg_20"></path>
					<path class="st0" d="M292.9,38.69999999999999 c-0.30000000000000004,0.30000000000000004 -0.7000000000000001,0.30000000000000004 -1.2,0.30000000000000004 s-1,0 -1.6,0 c-0.5,0 -1,0 -1.6,0 c-0.8,0 -1.5,-0.2 -2,-0.7000000000000001 s-1,-1 -1.5,-1.5 c-0.30000000000000004,-0.30000000000000004 -0.6000000000000001,-0.7000000000000001 -1,-0.9 c-0.5,-0.4 -1,-0.30000000000000004 -1.3,0.30000000000000004 c-0.30000000000000004,0.5 -0.30000000000000004,1 -0.30000000000000004,1.6 c0,0.2 0,0.30000000000000004 0,0.5 c0,0.4 -0.30000000000000004,0.7000000000000001 -0.8,0.8 c-0.8,0 -1.5,0.1 -2.3,0 c-1.3,-0.1 -2.5,-0.5 -3.6,-1.2 c-1.4,-0.8 -2.5,-2 -3.5,-3.3 c-1.6,-2.1 -2.8,-4.4 -4,-6.8 c-0.30000000000000004,-0.6000000000000001 -0.6000000000000001,-1.2 -0.8,-1.8 l0,0 c-0.30000000000000004,-0.6000000000000001 0,-1 0.6000000000000001,-1 c0.7000000000000001,0 1.3,0 2,0 l0,0 c0.6000000000000001,0 1.1,0 1.7000000000000002,0 c0.5,0 0.9,0.30000000000000004 1.1,0.8 c0.7000000000000001,1.8 1.6,3.4 2.8,4.9 c0.2,0.30000000000000004 0.4,0.5 0.7000000000000001,0.7000000000000001 c0.4,0.30000000000000004 0.8,0.2 0.9,-0.30000000000000004 c0.1,-0.30000000000000004 0.2,-0.7000000000000001 0.2,-1.1 c0,-0.7000000000000001 0.1,-1.3 0,-2 c0,-0.5 -0.1,-1 -0.1,-1.5 c-0.1,-0.7000000000000001 -0.5,-1 -1.2,-1.1 c-0.30000000000000004,-0.1 -0.4,-0.2 -0.1,-0.4 c0.30000000000000004,-0.4 0.8,-0.6000000000000001 1.3,-0.6000000000000001 c1.1,-0.2 2.2,-0.1 3.3,-0.1 c0.30000000000000004,0 0.7000000000000001,0.1 1,0.2 c0.5,0.1 0.8,0.5 0.8,1 s0,1.1 0,1.6 c0,1.1 0,2.1 0,3.2 c0,0.30000000000000004 0.1,0.6000000000000001 0.2,0.8 c0.2,0.4 0.5,0.4 0.8,0.2 c0.5,-0.30000000000000004 0.8,-0.8 1.1,-1.2 c1,-1.4 1.8,-2.9 2.4,-4.5 c0.2,-0.5 0.4,-0.7000000000000001 1,-0.7000000000000001 c1.2,0 2.4,0 3.6,0 c0.30000000000000004,0 0.6000000000000001,0 0.9,0 c0.6000000000000001,0.1 0.8,0.4 0.7000000000000001,1 c-0.2,0.6000000000000001 -0.5,1.2 -0.9,1.7000000000000002 c-0.8,1.1 -1.6,2.1 -2.3,3.2 c-0.2,0.30000000000000004 -0.5,0.7000000000000001 -0.7000000000000001,1 c-0.4,0.6000000000000001 -0.30000000000000004,1 0.2,1.5 s1.1,1 1.6,1.6 c0.6000000000000001,0.6000000000000001 1.3,1.3 1.8,2.1 c0.2,0.30000000000000004 0.30000000000000004,0.6000000000000001 0.4,0.8 C293.3,38.30000000000001 293.1,38.5 292.9,38.69999999999999 z" id="svg_21"></path>
				</g>
			</g>
			<g id="svg_22">
				<rect x="0" y="0" class="st0" width="62.400001525878906" height="62.400001525878906" id="svg_23"></rect>
				<g id="svg_24">
					<circle class="st4" cx="155.89999389648438" cy="31.20001220703125" r="21.299999237060547" id="svg_25"></circle>
					<g id="svg_26">
						<g id="svg_27">
							<path class="st0" d="M168.1,24.19999999999999 c-0.8,0.4 -1.7000000000000002,0.6000000000000001 -2.6,0.7000000000000001 c0.9,-0.6000000000000001 1.7000000000000002,-1.5 2,-2.5 c-0.9,0.5 -1.9,0.9 -2.9,1.1 c-0.8,-0.9 -2,-1.5 -3.4,-1.5 c-2.5,0 -4.6,2.1 -4.6,4.6 c0,0.4 0,0.7000000000000001 0.1,1 c-3.8,-0.2 -7.2,-2 -9.5,-4.8 c-0.4,0.7000000000000001 -0.6000000000000001,1.5 -0.6000000000000001,2.3 c0,1.6 0.8,3 2,3.8 c-0.8,0 -1.5,-0.2 -2.1,-0.6000000000000001 v0.1 c0,2.2 1.6,4.1 3.7,4.5 c-0.4,0.1 -0.8,0.2 -1.2,0.2 c-0.30000000000000004,0 -0.6000000000000001,0 -0.9,-0.1 c0.6000000000000001,1.8 2.3,3.2 4.3,3.2 c-1.6,1.2 -3.6,2 -5.7,2 c-0.4,0 -0.7000000000000001,0 -1.1,-0.1 c2,1.3 4.5,2.1 7,2.1 c8.5,0 13.1,-7 13.1,-13.1 V26.5 C166.7,26 167.5,25.19999999999999 168.1,24.19999999999999 z" id="svg_28"></path>
						</g>
					</g>
				</g>
			</g>
			<g id="svg_29">
				<rect x="0" y="0" class="st0" width="62.400001525878906" height="62.400001525878906" id="svg_30"></rect>
				<g id="svg_31">
					<linearGradient id="SVGID_1_" gradientUnits="userSpaceOnUse" x1="-811.8345947265625" y1="484.5035095214844" x2="-769.3148803710938" y2="484.5035095214844" gradientTransform="matrix(4.489659e-011 -1 1 4.489659e-011 -500.9535 -369.9137)" transform="translate(110,-389.5) ">
						<stop offset="0" style="stop-color:#DE9B3F"></stop>
						<stop offset="0.3" style="stop-color:#C64C4E"></stop>
						<stop offset="0.6" style="stop-color:#C22776"></stop>
						<stop offset="1" style="stop-color:#5F4387"></stop>
					</linearGradient>
					<circle class="st5" cx="93.5999984741211" cy="31.20001220703125" r="21.299999237060547" id="svg_32"></circle>
					<g id="svg_33">
						<path id="XMLID_17_" class="st0" d="M98.2,19.899999999999977 H89 c-3.7,0 -6.7,3 -6.7,6.7 v9.2 c0,3.7 3,6.7 6.7,6.7 h9.2 c3.7,0 6.7,-3 6.7,-6.7 v-9.2 C104.9,22.899999999999977 101.9,19.899999999999977 98.2,19.899999999999977 zM102.7,35.80000000000001 c0,2.5 -2,4.5 -4.5,4.5 H89 c-2.5,0 -4.5,-2 -4.5,-4.5 v-9.2 c0,-2.5 2,-4.5 4.5,-4.5 h9.2 c2.5,0 4.5,2 4.5,4.5 V35.80000000000001 L102.7,35.80000000000001 z"></path>
						<path id="XMLID_81_" class="st0" d="M93.6,25.30000000000001 c-3.2,0 -5.9,2.6 -5.9,5.9 s2.6,5.9 5.9,5.9 c3.2,0 5.9,-2.6 5.9,-5.9 S96.9,25.30000000000001 93.6,25.30000000000001 zM93.6,34.80000000000001 c-2,0 -3.6,-1.6 -3.6,-3.6 s1.6,-3.6 3.6,-3.6 s3.6,1.6 3.6,3.6 S95.6,34.80000000000001 93.6,34.80000000000001 z"></path>
						<circle id="XMLID_83_" class="st0" cx="99.5" cy="25.399993896484375" r="1.399999976158142"></circle>
					</g>
				</g>
			</g>
			<g id="svg_34">
				<rect x="0" y="0" class="st0" width="62.400001525878906" height="62.400001525878906" id="svg_35"></rect>
				<circle class="st6" cx="218.3000030517578" cy="31.20001220703125" r="21.299999237060547" id="svg_36"></circle>
				<g id="svg_37">
					<path class="st0" d="M203.7,31.19999999999999 c-0.2,-4.8 4,-9.2 8.8,-9.2 c2.4,-0.2 4.8,0.7000000000000001 6.7,2.3 c-0.8,0.8 -1.5,1.7000000000000002 -2.3,2.4 c-1.6,-1 -3.6,-1.7000000000000002 -5.5,-1.1 c-3.1,0.9 -4.9,4.5 -3.8,7.5 c0.9,3.1 4.7,4.8 7.7,3.5 c1.5,-0.6000000000000001 2.6,-2 3,-3.5 c-1.8,0 -3.5,0 -5.3,-0.1 c0,-1.1 0,-2.1 0,-3.2 c3,0 5.9,0 8.9,0 c0.2,2.6 -0.2,5.3 -1.9,7.4 c-2.3,3 -6.5,3.8 -10,2.7 C206.3,38.80000000000001 203.6,35.10000000000002 203.7,31.19999999999999 L203.7,31.19999999999999 z" id="svg_38"></path>
					<path class="st0" d="M227.6,27.19999999999999 c0.9,0 1.8,0 2.6,0 c0,0.9 0,1.8 0,2.6 c0.9,0 1.8,0 2.6,0 c0,0.9 0,1.8 0,2.6 c-0.9,0 -1.8,0 -2.6,0 c0,0.9 0,1.8 0,2.6 c-0.9,0 -1.8,0 -2.6,0 c0,-0.9 0,-1.8 0,-2.6 c-0.9,0 -1.8,0 -2.6,0 c0,-0.9 0,-1.8 0,-2.6 c0.9,0 1.8,0 2.6,0 C227.6,29 227.6,28.100000000000023 227.6,27.19999999999999 L227.6,27.19999999999999 z" id="svg_39"></path>
				</g>
			</g>
		</g>
	</g>
</svg>