<?xml version="1.0" encoding="utf-8"?>
<!-- Generator: Adobe Illustrator 19.0.1, SVG Export Plug-In . SVG Version: 6.00 Build 0)  -->
<svg version="1.1" id="Слой_1" xmlns="http://www.w3.org/2000/svg" xmlns:xlink="http://www.w3.org/1999/xlink" x="0px" y="0px"
	 viewBox="-110 389.5 374.2 62.4" style="enable-background:new -110 389.5 374.2 62.4;" xml:space="preserve">
<style type="text/css">
	.st0{fill:#FFFFFF;}
	.st1{fill:#C13332;}
	.st2{fill:#415695;}
	.st3{fill:#4674B0;}
	.st4{fill:#5CA3D9;}
	.st5{fill:url(#SVGID_1_);}
	.st6{fill:#B54A3C;}
</style>
<g>
	<g>
		<rect x="201.9" y="389.5" class="st0" width="62.4" height="62.4"/>
		<g>
			<circle class="st1" cx="233.1" cy="420.7" r="21.3"/>
			<circle class="st1" cx="233.1" cy="420.7" r="19.1"/>
			<g>
				<path class="st0" d="M239.9,412.4h-13.7c-2.7,0-4.9,2.2-4.9,4.9v6.8c0,2.7,2.2,4.9,4.9,4.9h13.7c2.7,0,4.9-2.2,4.9-4.9v-6.8
					C244.8,414.6,242.6,412.4,239.9,412.4z M236.6,421l-6.4,3.1c-0.2,0.1-0.4,0-0.4-0.2v-6.4c0-0.2,0.2-0.3,0.4-0.2l6.4,3.2
					C236.8,420.6,236.8,420.9,236.6,421z"/>
			</g>
		</g>
	</g>
	<g>
		<rect x="-110" y="389.5" class="st0" width="62.4" height="62.4"/>
		<g>
			<circle class="st2" cx="-78.8" cy="420.7" r="19.1"/>
			<g>
				<path class="st0" d="M-73.2,408.8h-3.1c-3.5,0-5.8,2.3-5.8,5.9v2.7h-3.1c-0.3,0-0.5,0.2-0.5,0.5v3.9c0,0.3,0.2,0.5,0.5,0.5h3.1
					v10c0,0.3,0.2,0.5,0.5,0.5h4.1c0.3,0,0.5-0.2,0.5-0.5v-10h3.7c0.3,0,0.5-0.2,0.5-0.5v-3.9c0-0.1-0.1-0.3-0.1-0.3
					c-0.1-0.1-0.2-0.1-0.3-0.1H-77v-2.3c0-1.1,0.3-1.7,1.7-1.7h2.1c0.3,0,0.5-0.2,0.5-0.5v-3.7C-72.7,409-72.9,408.8-73.2,408.8z"/>
			</g>
			<path class="st2" d="M-78.8,399.4c-11.7,0-21.3,9.5-21.3,21.3s9.5,21.3,21.3,21.3s21.3-9.5,21.3-21.3
				C-57.5,408.9-67.1,399.4-78.8,399.4z M-78.8,439.8c-10.6,0-19.2-8.6-19.2-19.1s8.6-19.2,19.2-19.2s19.1,8.6,19.1,19.1
				S-68.3,439.8-78.8,439.8z"/>
		</g>
	</g>
	<g>
		<rect x="139.5" y="389.5" class="st0" width="62.4" height="62.4"/>
		<g>
			<circle class="st0" cx="170.6" cy="420.7" r="19.5"/>
			<path class="st3" d="M189.5,410.9c-2-3.9-5.2-7.1-9.1-9.1c-2.9-1.5-6.3-2.4-9.8-2.4s-6.9,0.9-9.8,2.4c-3.9,2-7.1,5.2-9.1,9.1
				c-1.5,2.9-2.4,6.3-2.4,9.8s0.9,6.9,2.4,9.8c2,3.9,5.2,7.1,9.1,9.1c2.9,1.5,6.3,2.4,9.8,2.4s6.9-0.9,9.8-2.4
				c3.9-2,7.1-5.2,9.1-9.1c1.5-2.9,2.4-6.3,2.4-9.8S191,413.8,189.5,410.9z"/>
			<path class="st0" d="M182.9,428.2c-0.3,0.3-0.7,0.3-1.2,0.3s-1,0-1.6,0c-0.5,0-1,0-1.6,0c-0.8,0-1.5-0.2-2-0.7s-1-1-1.5-1.5
				c-0.3-0.3-0.6-0.7-1-0.9c-0.5-0.4-1-0.3-1.3,0.3c-0.3,0.5-0.3,1-0.3,1.6c0,0.2,0,0.3,0,0.5c0,0.4-0.3,0.7-0.8,0.8
				c-0.8,0-1.5,0.1-2.3,0c-1.3-0.1-2.5-0.5-3.6-1.2c-1.4-0.8-2.5-2-3.5-3.3c-1.6-2.1-2.8-4.4-4-6.8c-0.3-0.6-0.6-1.2-0.8-1.8l0,0
				c-0.3-0.6,0-1,0.6-1c0.7,0,1.3,0,2,0l0,0c0.6,0,1.1,0,1.7,0c0.5,0,0.9,0.3,1.1,0.8c0.7,1.8,1.6,3.4,2.8,4.9
				c0.2,0.3,0.4,0.5,0.7,0.7c0.4,0.3,0.8,0.2,0.9-0.3c0.1-0.3,0.2-0.7,0.2-1.1c0-0.7,0.1-1.3,0-2c0-0.5-0.1-1-0.1-1.5
				c-0.1-0.7-0.5-1-1.2-1.1c-0.3-0.1-0.4-0.2-0.1-0.4c0.3-0.4,0.8-0.6,1.3-0.6c1.1-0.2,2.2-0.1,3.3-0.1c0.3,0,0.7,0.1,1,0.2
				c0.5,0.1,0.8,0.5,0.8,1s0,1.1,0,1.6c0,1.1,0,2.1,0,3.2c0,0.3,0.1,0.6,0.2,0.8c0.2,0.4,0.5,0.4,0.8,0.2c0.5-0.3,0.8-0.8,1.1-1.2
				c1-1.4,1.8-2.9,2.4-4.5c0.2-0.5,0.4-0.7,1-0.7c1.2,0,2.4,0,3.6,0c0.3,0,0.6,0,0.9,0c0.6,0.1,0.8,0.4,0.7,1
				c-0.2,0.6-0.5,1.2-0.9,1.7c-0.8,1.1-1.6,2.1-2.3,3.2c-0.2,0.3-0.5,0.7-0.7,1c-0.4,0.6-0.3,1,0.2,1.5s1.1,1,1.6,1.6
				c0.6,0.6,1.3,1.3,1.8,2.1c0.2,0.3,0.3,0.6,0.4,0.8C183.3,427.8,183.1,428,182.9,428.2z"/>
		</g>
	</g>
	<g>
		<rect x="14.7" y="389.5" class="st0" width="62.4" height="62.4"/>
		<g>
			<circle class="st4" cx="45.9" cy="420.7" r="21.3"/>
			<g>
				<g>
					<path class="st0" d="M58.1,413.7c-0.8,0.4-1.7,0.6-2.6,0.7c0.9-0.6,1.7-1.5,2-2.5c-0.9,0.5-1.9,0.9-2.9,1.1
						c-0.8-0.9-2-1.5-3.4-1.5c-2.5,0-4.6,2.1-4.6,4.6c0,0.4,0,0.7,0.1,1c-3.8-0.2-7.2-2-9.5-4.8c-0.4,0.7-0.6,1.5-0.6,2.3
						c0,1.6,0.8,3,2,3.8c-0.8,0-1.5-0.2-2.1-0.6v0.1c0,2.2,1.6,4.1,3.7,4.5c-0.4,0.1-0.8,0.2-1.2,0.2c-0.3,0-0.6,0-0.9-0.1
						c0.6,1.8,2.3,3.2,4.3,3.2c-1.6,1.2-3.6,2-5.7,2c-0.4,0-0.7,0-1.1-0.1c2,1.3,4.5,2.1,7,2.1c8.5,0,13.1-7,13.1-13.1V416
						C56.7,415.5,57.5,414.7,58.1,413.7z"/>
				</g>
			</g>
		</g>
	</g>
	<g>
		<rect x="-47.6" y="389.5" class="st0" width="62.4" height="62.4"/>
		<g>
			
				<linearGradient id="SVGID_1_" gradientUnits="userSpaceOnUse" x1="-811.8346" y1="484.5035" x2="-769.3149" y2="484.5035" gradientTransform="matrix(4.489659e-011 -1 1 4.489659e-011 -500.9535 -369.9137)">
				<stop  offset="0" style="stop-color:#DE9B3F"/>
				<stop  offset="0.3" style="stop-color:#C64C4E"/>
				<stop  offset="0.6" style="stop-color:#C22776"/>
				<stop  offset="1" style="stop-color:#5F4387"/>
			</linearGradient>
			<circle class="st5" cx="-16.4" cy="420.7" r="21.3"/>
			<g>
				<path id="XMLID_17_" class="st0" d="M-11.8,409.4H-21c-3.7,0-6.7,3-6.7,6.7v9.2c0,3.7,3,6.7,6.7,6.7h9.2c3.7,0,6.7-3,6.7-6.7
					v-9.2C-5.1,412.4-8.1,409.4-11.8,409.4z M-7.3,425.3c0,2.5-2,4.5-4.5,4.5H-21c-2.5,0-4.5-2-4.5-4.5v-9.2c0-2.5,2-4.5,4.5-4.5
					h9.2c2.5,0,4.5,2,4.5,4.5V425.3L-7.3,425.3z"/>
				<path id="XMLID_81_" class="st0" d="M-16.4,414.8c-3.2,0-5.9,2.6-5.9,5.9s2.6,5.9,5.9,5.9c3.2,0,5.9-2.6,5.9-5.9
					S-13.1,414.8-16.4,414.8z M-16.4,424.3c-2,0-3.6-1.6-3.6-3.6s1.6-3.6,3.6-3.6s3.6,1.6,3.6,3.6S-14.4,424.3-16.4,424.3z"/>
				<circle id="XMLID_83_" class="st0" cx="-10.5" cy="414.9" r="1.4"/>
			</g>
		</g>
	</g>
	<g>
		<rect x="77.1" y="389.5" class="st0" width="62.4" height="62.4"/>
		<circle class="st6" cx="108.3" cy="420.7" r="21.3"/>
		<g>
			<path class="st0" d="M93.7,420.7c-0.2-4.8,4-9.2,8.8-9.2c2.4-0.2,4.8,0.7,6.7,2.3c-0.8,0.8-1.5,1.7-2.3,2.4
				c-1.6-1-3.6-1.7-5.5-1.1c-3.1,0.9-4.9,4.5-3.8,7.5c0.9,3.1,4.7,4.8,7.7,3.5c1.5-0.6,2.6-2,3-3.5c-1.8,0-3.5,0-5.3-0.1
				c0-1.1,0-2.1,0-3.2c3,0,5.9,0,8.9,0c0.2,2.6-0.2,5.3-1.9,7.4c-2.3,3-6.5,3.8-10,2.7C96.3,428.3,93.6,424.6,93.7,420.7L93.7,420.7
				z"/>
			<path class="st0" d="M117.6,416.7c0.9,0,1.8,0,2.6,0c0,0.9,0,1.8,0,2.6c0.9,0,1.8,0,2.6,0c0,0.9,0,1.8,0,2.6c-0.9,0-1.8,0-2.6,0
				c0,0.9,0,1.8,0,2.6c-0.9,0-1.8,0-2.6,0c0-0.9,0-1.8,0-2.6c-0.9,0-1.8,0-2.6,0c0-0.9,0-1.8,0-2.6c0.9,0,1.8,0,2.6,0
				C117.6,418.5,117.6,417.6,117.6,416.7L117.6,416.7z"/>
		</g>
	</g>
</g>
</svg>
